# xmcd CD database file
#
# Track frame offsets:
#	222
#	15522
#	29050
#	42015
#	55635
#	69467
#	81182
#	95995
#	107380
#	120992
#	131640
#	144965
#	159110
#
# Disc length: 2327 seconds
#
# Revision: 2
# Processed by: cddbd v1.5PL3 Copyright (c) Steve Scherf et al.
# Submitted via: CDex 1.51
#
DISCID=9d09150d
DTITLE=Jimmie Rodgers - Last Sessions, 1933
DYEAR=1991
DGENRE=Country
TTITLE0=Blue Yodel No. 12
TTITLE1=Dreaming With Tears In My Eyes
TTITLE2=Dreaming With Tears In My Eyes
TTITLE3=The Cowhands Last Ride
TTITLE4=I'm Free (From The Chain Gang Now)
TTITLE5=Yodeling My Way back Home
TTITLE6=Jimmie Rodger's Last Blue Yodel
TTITLE7=The Yodeling Ranger
TTITLE8=Old Pal Of My Heart
TTITLE9=Years Ago
TTITLE10=Somewhere Down Below The Dixon Line
TTITLE11=Old Love Letters
TTITLE12=Mississippi Delta Blues
EXTD=YEAR: 1991
EXTT0=
EXTT1=
EXTT2=
EXTT3=
EXTT4=
EXTT5=
EXTT6=
EXTT7=
EXTT8=
EXTT9=
EXTT10=
EXTT11=
EXTT12=
PLAYORDER=
